# xmcd
#
# Track frame offsets:
#	150
#	12772
#	30229
#	43712
#	55595
#	74031
#	89789
#	102652
#	114089
#	130069
#	138991
#	154981
#
# Disc length: 2206 seconds
# Revision: 0
# Processed by: cddbd v1.5.2PL0 Copyright (c) Steve Scherf et al.
# Submitted via: dBpowerAMP V12.0
#
DISCID=9f089c0c
DTITLE=Norm Whitton - Memories of Maitland
DYEAR=2017
DGENRE=Country
TTITLE0=You're My Best Friend
TTITLE1=Jacksonville
TTITLE2=Big City
TTITLE3=Ring of Fire
TTITLE4=Who's Cheating Who
TTITLE5=Your Man
TTITLE6=Laid Back N Low Key
TTITLE7=Understand Your Man
TTITLE8=You Never Know
TTITLE9=Guess Things Happen That Way
TTITLE10=In My Dreams
TTITLE11=Memories Are Made of This
EXTD=
EXTT0=
EXTT1=
EXTT2=
EXTT3=
EXTT4=
EXTT5=
EXTT6=
EXTT7=
EXTT8=
EXTT9=
EXTT10=
EXTT11=
PLAYORDER=
